<?xml version="1.0" encoding="UTF-8"?>
<svg id="Layer_2" data-name="Layer 2" xmlns="http://www.w3.org/2000/svg" xmlns:xlink="http://www.w3.org/1999/xlink" viewBox="0 0 24 24">
  <defs>
    <style>
      .cls-1 {
        fill: none;
      }

      .cls-2 {
        clip-path: url(#clippath-1);
      }

      .cls-3 {
        fill: #fff;
      }

      .cls-4 {
        clip-path: url(#clippath);
      }
    </style>
    <clipPath id="clippath">
      <rect class="cls-1" width="24" height="24"/>
    </clipPath>
    <clipPath id="clippath-1">
      <rect class="cls-1" width="24" height="24"/>
    </clipPath>
  </defs>
  <g id="Layer_1-2" data-name="Layer 1">
    <g class="cls-4">
      <g class="cls-2">
        <g>
          <path class="cls-3" d="M11.51,2.07c3.07,0,3.44.01,4.65.07,1.12.05,1.73.24,2.13.4.54.21.92.46,1.32.86.4.4.65.79.86,1.32.16.4.35,1.02.4,2.13.05,1.21.07,1.58.07,4.65s-.01,3.44-.07,4.65c-.05,1.12-.24,1.73-.4,2.14-.21.53-.46.92-.86,1.32-.4.4-.79.65-1.32.86-.4.16-1.01.35-2.13.4-1.21.05-1.58.07-4.65.07s-3.44-.01-4.65-.07c-1.12-.05-1.73-.24-2.13-.4-.54-.21-.92-.46-1.32-.86-.4-.4-.65-.79-.86-1.32-.16-.4-.35-1.02-.4-2.14-.05-1.21-.07-1.58-.07-4.65s.01-3.44.07-4.65c.05-1.12.24-1.73.4-2.13.21-.53.46-.92.86-1.32.4-.4.79-.65,1.32-.86.4-.16,1.02-.35,2.13-.4,1.21-.05,1.57-.07,4.65-.07ZM11.51,0c-3.12,0-3.51.01-4.74.07-1.22.05-2.06.25-2.79.53-.76.3-1.4.69-2.04,1.33-.64.64-1.03,1.28-1.33,2.04-.28.73-.48,1.57-.54,2.79-.05,1.23-.07,1.62-.07,4.75s.01,3.51.07,4.74c.05,1.22.25,2.06.54,2.79.3.76.69,1.4,1.33,2.04.64.64,1.28,1.03,2.04,1.33.73.28,1.57.48,2.79.54,1.23.05,1.62.07,4.74.07s3.51-.01,4.74-.07c1.22-.05,2.06-.25,2.79-.54.76-.29,1.4-.69,2.04-1.33.64-.64,1.03-1.28,1.33-2.04.28-.73.48-1.57.54-2.79.05-1.23.07-1.62.07-4.74s-.01-3.51-.07-4.74c-.05-1.22-.25-2.06-.54-2.79-.28-.76-.67-1.41-1.32-2.05-.64-.64-1.28-1.03-2.04-1.33-.73-.28-1.57-.48-2.79-.53-1.23-.06-1.62-.07-4.75-.07Z"/>
          <path class="cls-3" d="M11.51,5.59c-3.26,0-5.91,2.65-5.91,5.91s2.65,5.91,5.91,5.91,5.91-2.65,5.91-5.91-2.65-5.91-5.91-5.91ZM11.51,15.34c-2.12,0-3.83-1.72-3.83-3.83s1.72-3.83,3.83-3.83,3.83,1.72,3.83,3.83-1.72,3.83-3.83,3.83Z"/>
        </g>
      </g>
    </g>
  </g>
</svg>