<?xml version="1.0" encoding="UTF-8"?>
<svg id="Layer_2" data-name="Layer 2" xmlns="http://www.w3.org/2000/svg" xmlns:xlink="http://www.w3.org/1999/xlink" viewBox="0 0 24 24">
  <defs>
    <style>
      .cls-1 {
        fill: none;
      }

      .cls-2 {
        clip-path: url(#clippath-1);
      }

      .cls-3 {
        fill: #fff;
      }

      .cls-4 {
        clip-path: url(#clippath);
      }
    </style>
    <clipPath id="clippath">
      <rect class="cls-1" width="24" height="24"/>
    </clipPath>
    <clipPath id="clippath-1">
      <rect class="cls-1" width="24" height="24"/>
    </clipPath>
  </defs>
  <g id="Layer_1-2" data-name="Layer 1">
    <g class="cls-4">
      <g class="cls-2">
        <path class="cls-3" d="M22.3,1H2.7c-.94,0-1.7.74-1.7,1.66v19.68c0,.92.76,1.66,1.7,1.66h19.6c.94,0,1.7-.75,1.7-1.66V2.66c0-.92-.76-1.66-1.7-1.66ZM7.82,20.6h-3.41v-10.98h3.41v10.98ZM6.12,8.12c-1.1,0-1.98-.89-1.98-1.98s.89-1.98,1.98-1.98,1.98.88,1.98,1.98-.89,1.98-1.98,1.98ZM20.6,20.6h-3.41v-5.34c0-1.27-.02-2.91-1.77-2.91s-2.04,1.39-2.04,2.82v5.43h-3.41v-10.98h3.27v1.5h.04c.45-.86,1.57-1.77,3.23-1.77,3.45,0,4.09,2.27,4.09,5.23v6.02h0Z"/>
      </g>
    </g>
  </g>
</svg>