<?xml version="1.0" encoding="UTF-8"?>
<svg id="Layer_2" data-name="Layer 2" xmlns="http://www.w3.org/2000/svg" xmlns:xlink="http://www.w3.org/1999/xlink" viewBox="0 0 24 24">
  <defs>
    <style>
      .cls-1 {
        fill: none;
      }

      .cls-2 {
        fill: #fff;
      }

      .cls-3 {
        clip-path: url(#clippath);
      }
    </style>
    <clipPath id="clippath">
      <rect class="cls-1" width="24" height="24"/>
    </clipPath>
  </defs>
  <g id="Layer_1-2" data-name="Layer 1">
    <g class="cls-3">
      <path class="cls-2" d="M12,1c.91,0,1.78.37,2.42,1.02.64.65,1,1.53,1,2.46v6.95c0,.92-.36,1.8-1,2.46-.64.65-1.52,1.02-2.42,1.02s-1.78-.37-2.42-1.02c-.64-.65-1-1.53-1-2.46v-6.95c0-.92.36-1.8,1-2.46.64-.65,1.52-1.02,2.42-1.02h0ZM20,11.42c0,4.09-2.98,7.46-6.86,8.02v3.55h-2.29v-3.55c-3.87-.57-6.86-3.94-6.86-8.02h2.29c0,1.54.6,3.01,1.67,4.09,1.07,1.09,2.53,1.7,4.04,1.7s2.97-.61,4.04-1.7c1.07-1.09,1.67-2.56,1.67-4.09h2.29Z"/>
    </g>
  </g>
</svg>