<?xml version="1.0" encoding="UTF-8"?>
<svg id="Layer_2" data-name="Layer 2" xmlns="http://www.w3.org/2000/svg" xmlns:xlink="http://www.w3.org/1999/xlink" viewBox="0 0 24 24">
  <defs>
    <style>
      .cls-1 {
        fill: none;
      }

      .cls-2 {
        fill: #fff;
      }

      .cls-3 {
        clip-path: url(#clippath);
      }
    </style>
    <clipPath id="clippath">
      <rect class="cls-1" width="24" height="24"/>
    </clipPath>
  </defs>
  <g id="Layer_1-2" data-name="Layer 1">
    <g class="cls-3">
      <path class="cls-2" d="M12,1C5.92,1,1,5.92,1,12c0,4.66,2.9,8.64,6.99,10.24-.1-.87-.18-2.21.04-3.15.2-.86,1.29-5.47,1.29-5.47,0,0-.33-.66-.33-1.63,0-1.53.88-2.67,1.99-2.67.94,0,1.39.7,1.39,1.55,0,.95-.6,2.35-.91,3.66-.26,1.1.55,1.99,1.63,1.99,1.95,0,3.46-2.06,3.46-5.04,0-2.63-1.89-4.48-4.59-4.48-3.13,0-4.97,2.35-4.97,4.77,0,.95.37,1.96.82,2.51.09.11.1.21.08.31-.08.35-.27,1.1-.3,1.25-.05.2-.16.24-.37.15-1.38-.64-2.23-2.65-2.23-4.26,0-3.47,2.52-6.66,7.27-6.66,3.82,0,6.78,2.72,6.78,6.36s-2.39,6.84-5.71,6.84c-1.11,0-2.16-.58-2.52-1.26,0,0-.55,2.1-.68,2.62-.25.95-.92,2.15-1.37,2.88,1.03.32,2.12.49,3.26.49,6.08,0,11-4.92,11-11S18.08,1,12,1Z"/>
    </g>
  </g>
</svg>